<svg width="512" height="483" viewBox="0 0 512 483" fill="none" xmlns="http://www.w3.org/2000/svg">
<rect x="215.281" y="28.0602" width="303.11" height="303.11" rx="26" transform="rotate(45.2546 215.281 28.0602)" fill="#D08419"/>
<rect x="272.827" width="339.756" height="342.705" rx="26" transform="rotate(45.2546 272.827 0)" fill="#145B45"/>
<mask id="path-3-outside-1_2_95" maskUnits="userSpaceOnUse" x="364.585" y="203" width="66" height="83" fill="black">
<rect fill="white" x="364.585" y="203" width="66" height="83"/>
<path d="M394.961 242.4C398.545 242.4 401.276 241.589 403.153 239.968C405.116 238.261 406.097 235.701 406.097 232.288C406.097 229.045 405.073 226.571 403.025 224.864C401.063 223.072 398.161 222.176 394.321 222.176C392.956 222.176 391.804 222.219 390.865 222.304C390.012 222.304 389.116 222.389 388.177 222.56V242.4H394.961ZM388.305 283.488C387.367 283.744 385.873 284 383.825 284.256C381.863 284.512 379.9 284.64 377.937 284.64C375.975 284.64 374.225 284.469 372.689 284.128C371.239 283.872 370.001 283.36 368.977 282.592C367.953 281.824 367.185 280.757 366.673 279.392C366.161 278.027 365.905 276.235 365.905 274.016V213.728C365.905 211.936 366.375 210.571 367.313 209.632C368.337 208.608 369.703 207.797 371.409 207.2C374.311 206.176 377.596 205.451 381.265 205.024C385.02 204.512 388.775 204.256 392.529 204.256C404.305 204.256 413.308 206.773 419.537 211.808C425.767 216.843 428.881 223.669 428.881 232.288C428.881 236.469 428.199 240.267 426.833 243.68C425.553 247.008 423.591 249.909 420.945 252.384C418.385 254.773 415.1 256.651 411.089 258.016C407.164 259.296 402.599 259.936 397.393 259.936H388.305V283.488Z"/>
</mask>
<path d="M394.961 242.4C398.545 242.4 401.276 241.589 403.153 239.968C405.116 238.261 406.097 235.701 406.097 232.288C406.097 229.045 405.073 226.571 403.025 224.864C401.063 223.072 398.161 222.176 394.321 222.176C392.956 222.176 391.804 222.219 390.865 222.304C390.012 222.304 389.116 222.389 388.177 222.56V242.4H394.961ZM388.305 283.488C387.367 283.744 385.873 284 383.825 284.256C381.863 284.512 379.9 284.64 377.937 284.64C375.975 284.64 374.225 284.469 372.689 284.128C371.239 283.872 370.001 283.36 368.977 282.592C367.953 281.824 367.185 280.757 366.673 279.392C366.161 278.027 365.905 276.235 365.905 274.016V213.728C365.905 211.936 366.375 210.571 367.313 209.632C368.337 208.608 369.703 207.797 371.409 207.2C374.311 206.176 377.596 205.451 381.265 205.024C385.02 204.512 388.775 204.256 392.529 204.256C404.305 204.256 413.308 206.773 419.537 211.808C425.767 216.843 428.881 223.669 428.881 232.288C428.881 236.469 428.199 240.267 426.833 243.68C425.553 247.008 423.591 249.909 420.945 252.384C418.385 254.773 415.1 256.651 411.089 258.016C407.164 259.296 402.599 259.936 397.393 259.936H388.305V283.488Z" fill="#D0AC19"/>
<path d="M403.153 239.968L403.807 240.725L403.809 240.723L403.153 239.968ZM403.025 224.864L402.351 225.602L402.368 225.618L402.385 225.632L403.025 224.864ZM390.865 222.304V223.304H390.911L390.956 223.3L390.865 222.304ZM388.177 222.56L387.998 221.576L387.177 221.725V222.56H388.177ZM388.177 242.4H387.177V243.4H388.177V242.4ZM388.305 283.488L388.568 284.453L389.305 284.252V283.488H388.305ZM383.825 284.256L383.701 283.264L383.696 283.264L383.825 284.256ZM372.689 284.128L372.906 283.152L372.885 283.147L372.863 283.143L372.689 284.128ZM368.977 282.592L368.377 283.392L368.377 283.392L368.977 282.592ZM366.673 279.392L365.737 279.743L365.737 279.743L366.673 279.392ZM367.313 209.632L368.02 210.339L368.02 210.339L367.313 209.632ZM371.409 207.2L371.74 208.144L371.742 208.143L371.409 207.2ZM381.265 205.024L381.381 206.017L381.391 206.016L381.4 206.015L381.265 205.024ZM419.537 211.808L418.909 212.586L419.537 211.808ZM426.833 243.68L425.905 243.309L425.9 243.321L426.833 243.68ZM420.945 252.384L421.628 253.115L421.628 253.114L420.945 252.384ZM411.089 258.016L411.399 258.967L411.412 258.963L411.089 258.016ZM388.305 259.936V258.936H387.305V259.936H388.305ZM394.961 243.4C398.68 243.4 401.682 242.56 403.807 240.725L402.5 239.211C400.87 240.619 398.41 241.4 394.961 241.4V243.4ZM403.809 240.723C406.054 238.771 407.097 235.895 407.097 232.288H405.097C405.097 235.508 404.178 237.752 402.497 239.213L403.809 240.723ZM407.097 232.288C407.097 228.819 405.991 226.033 403.665 224.096L402.385 225.632C404.156 227.108 405.097 229.272 405.097 232.288H407.097ZM403.7 224.126C401.485 222.104 398.301 221.176 394.321 221.176V223.176C398.022 223.176 400.64 224.04 402.351 225.602L403.7 224.126ZM394.321 221.176C392.938 221.176 391.754 221.219 390.775 221.308L390.956 223.3C391.854 223.218 392.974 223.176 394.321 223.176V221.176ZM390.865 221.304C389.945 221.304 388.989 221.396 387.998 221.576L388.356 223.544C389.243 223.383 390.079 223.304 390.865 223.304V221.304ZM387.177 222.56V242.4H389.177V222.56H387.177ZM388.177 243.4H394.961V241.4H388.177V243.4ZM388.042 282.523C387.176 282.759 385.742 283.009 383.701 283.264L383.949 285.248C386.004 284.991 387.557 284.729 388.568 284.453L388.042 282.523ZM383.696 283.264C381.776 283.515 379.856 283.64 377.937 283.64V285.64C379.944 285.64 381.949 285.509 383.955 285.248L383.696 283.264ZM377.937 283.64C376.031 283.64 374.356 283.474 372.906 283.152L372.472 285.104C374.095 285.465 375.919 285.64 377.937 285.64V283.64ZM372.863 283.143C371.544 282.91 370.458 282.453 369.577 281.792L368.377 283.392C369.545 284.267 370.934 284.834 372.516 285.113L372.863 283.143ZM369.577 281.792C368.726 281.154 368.064 280.253 367.61 279.041L365.737 279.743C366.306 281.262 367.18 282.494 368.377 283.392L369.577 281.792ZM367.61 279.041C367.156 277.83 366.905 276.171 366.905 274.016H364.905C364.905 276.299 365.167 278.223 365.737 279.743L367.61 279.041ZM366.905 274.016V213.728H364.905V274.016H366.905ZM366.905 213.728C366.905 212.106 367.327 211.032 368.02 210.339L366.606 208.925C365.422 210.109 364.905 211.766 364.905 213.728H366.905ZM368.02 210.339C368.915 209.444 370.14 208.704 371.74 208.144L371.079 206.256C369.265 206.891 367.759 207.772 366.606 208.925L368.02 210.339ZM371.742 208.143C374.561 207.148 377.771 206.437 381.381 206.017L381.15 204.031C377.421 204.464 374.061 205.204 371.076 206.257L371.742 208.143ZM381.4 206.015C385.111 205.509 388.82 205.256 392.529 205.256V203.256C388.729 203.256 384.929 203.515 381.13 204.033L381.4 206.015ZM392.529 205.256C404.181 205.256 412.924 207.749 418.909 212.586L420.166 211.03C413.692 205.798 404.43 203.256 392.529 203.256V205.256ZM418.909 212.586C424.883 217.415 427.881 223.945 427.881 232.288H429.881C429.881 223.394 426.65 216.271 420.166 211.03L418.909 212.586ZM427.881 232.288C427.881 236.359 427.217 240.028 425.905 243.309L427.762 244.051C429.18 240.505 429.881 236.579 429.881 232.288H427.881ZM425.9 243.321C424.675 246.506 422.799 249.281 420.262 251.654L421.628 253.114C424.382 250.538 426.432 247.51 427.767 244.039L425.9 243.321ZM420.263 251.653C417.826 253.928 414.671 255.74 410.767 257.069L411.412 258.963C415.529 257.561 418.945 255.619 421.628 253.115L420.263 251.653ZM410.779 257.065C406.976 258.305 402.52 258.936 397.393 258.936V260.936C402.678 260.936 407.352 260.287 411.399 258.967L410.779 257.065ZM397.393 258.936H388.305V260.936H397.393V258.936ZM387.305 259.936V283.488H389.305V259.936H387.305Z" fill="#8B720B" mask="url(#path-3-outside-1_2_95)"/>
<mask id="path-5-outside-2_2_95" maskUnits="userSpaceOnUse" x="265" y="205" width="60" height="81" fill="black">
<rect fill="white" x="265" y="205" width="60" height="81"/>
<path d="M266.32 218.336C266.32 214.667 267.387 211.765 269.52 209.632C271.653 207.499 274.555 206.432 278.224 206.432H320.464C321.061 207.371 321.573 208.608 322 210.144C322.512 211.68 322.768 213.301 322.768 215.008C322.768 218.251 322.043 220.555 320.592 221.92C319.227 223.285 317.392 223.968 315.088 223.968H288.08V235.872H316.88C317.477 236.811 317.989 238.048 318.416 239.584C318.928 241.035 319.184 242.613 319.184 244.32C319.184 247.563 318.501 249.867 317.136 251.232C315.771 252.597 313.936 253.28 311.632 253.28H288.08V266.72H320.976C321.573 267.659 322.085 268.896 322.512 270.432C323.024 271.968 323.28 273.589 323.28 275.296C323.28 278.539 322.555 280.885 321.104 282.336C319.739 283.701 317.904 284.384 315.6 284.384H278.224C274.555 284.384 271.653 283.317 269.52 281.184C267.387 279.051 266.32 276.149 266.32 272.48V218.336Z"/>
</mask>
<path d="M266.32 218.336C266.32 214.667 267.387 211.765 269.52 209.632C271.653 207.499 274.555 206.432 278.224 206.432H320.464C321.061 207.371 321.573 208.608 322 210.144C322.512 211.68 322.768 213.301 322.768 215.008C322.768 218.251 322.043 220.555 320.592 221.92C319.227 223.285 317.392 223.968 315.088 223.968H288.08V235.872H316.88C317.477 236.811 317.989 238.048 318.416 239.584C318.928 241.035 319.184 242.613 319.184 244.32C319.184 247.563 318.501 249.867 317.136 251.232C315.771 252.597 313.936 253.28 311.632 253.28H288.08V266.72H320.976C321.573 267.659 322.085 268.896 322.512 270.432C323.024 271.968 323.28 273.589 323.28 275.296C323.28 278.539 322.555 280.885 321.104 282.336C319.739 283.701 317.904 284.384 315.6 284.384H278.224C274.555 284.384 271.653 283.317 269.52 281.184C267.387 279.051 266.32 276.149 266.32 272.48V218.336Z" fill="#208A69"/>
<path d="M320.464 206.432L321.308 205.895L321.013 205.432H320.464V206.432ZM322 210.144L321.036 210.412L321.043 210.436L321.051 210.46L322 210.144ZM320.592 221.92L319.907 221.192L319.896 221.202L319.885 221.213L320.592 221.92ZM288.08 223.968V222.968H287.08V223.968H288.08ZM288.08 235.872H287.08V236.872H288.08V235.872ZM316.88 235.872L317.724 235.335L317.429 234.872H316.88V235.872ZM318.416 239.584L317.452 239.852L317.462 239.885L317.473 239.917L318.416 239.584ZM288.08 253.28V252.28H287.08V253.28H288.08ZM288.08 266.72H287.08V267.72H288.08V266.72ZM320.976 266.72L321.82 266.183L321.525 265.72H320.976V266.72ZM322.512 270.432L321.548 270.7L321.555 270.724L321.563 270.748L322.512 270.432ZM321.104 282.336L320.397 281.629L320.397 281.629L321.104 282.336ZM269.52 281.184L270.227 280.477L270.227 280.477L269.52 281.184ZM267.32 218.336C267.32 214.871 268.321 212.246 270.227 210.339L268.813 208.925C266.453 211.285 265.32 214.463 265.32 218.336H267.32ZM270.227 210.339C272.134 208.433 274.759 207.432 278.224 207.432V205.432C274.351 205.432 271.173 206.565 268.813 208.925L270.227 210.339ZM278.224 207.432H320.464V205.432H278.224V207.432ZM319.62 206.969C320.147 207.797 320.626 208.933 321.036 210.412L322.964 209.876C322.521 208.283 321.975 206.945 321.308 205.895L319.62 206.969ZM321.051 210.46C321.528 211.889 321.768 213.403 321.768 215.008H323.768C323.768 213.2 323.496 211.471 322.949 209.828L321.051 210.46ZM321.768 215.008C321.768 218.142 321.061 220.105 319.907 221.192L321.277 222.648C323.024 221.004 323.768 218.359 323.768 215.008H321.768ZM319.885 221.213C318.743 222.355 317.182 222.968 315.088 222.968V224.968C317.602 224.968 319.711 224.216 321.299 222.627L319.885 221.213ZM315.088 222.968H288.08V224.968H315.088V222.968ZM287.08 223.968V235.872H289.08V223.968H287.08ZM288.08 236.872H316.88V234.872H288.08V236.872ZM316.036 236.409C316.563 237.237 317.042 238.373 317.452 239.852L319.38 239.316C318.937 237.723 318.391 236.385 317.724 235.335L316.036 236.409ZM317.473 239.917C317.943 241.25 318.184 242.714 318.184 244.32H320.184C320.184 242.512 319.913 240.82 319.359 239.251L317.473 239.917ZM318.184 244.32C318.184 247.467 317.514 249.44 316.429 250.525L317.843 251.939C319.489 250.293 320.184 247.658 320.184 244.32H318.184ZM316.429 250.525C315.287 251.667 313.726 252.28 311.632 252.28V254.28C314.146 254.28 316.255 253.528 317.843 251.939L316.429 250.525ZM311.632 252.28H288.08V254.28H311.632V252.28ZM287.08 253.28V266.72H289.08V253.28H287.08ZM288.08 267.72H320.976V265.72H288.08V267.72ZM320.132 267.257C320.659 268.085 321.138 269.221 321.548 270.7L323.476 270.164C323.033 268.571 322.487 267.233 321.82 266.183L320.132 267.257ZM321.563 270.748C322.04 272.177 322.28 273.691 322.28 275.296H324.28C324.28 273.488 324.008 271.759 323.461 270.116L321.563 270.748ZM322.28 275.296C322.28 278.422 321.576 280.45 320.397 281.629L321.811 283.043C323.533 281.321 324.28 278.655 324.28 275.296H322.28ZM320.397 281.629C319.255 282.771 317.694 283.384 315.6 283.384V285.384C318.114 285.384 320.223 284.632 321.811 283.043L320.397 281.629ZM315.6 283.384H278.224V285.384H315.6V283.384ZM278.224 283.384C274.759 283.384 272.134 282.383 270.227 280.477L268.813 281.891C271.173 284.251 274.351 285.384 278.224 285.384V283.384ZM270.227 280.477C268.321 278.57 267.32 275.945 267.32 272.48H265.32C265.32 276.353 266.453 279.531 268.813 281.891L270.227 280.477ZM267.32 272.48V218.336H265.32V272.48H267.32Z" fill="#094230" mask="url(#path-5-outside-2_2_95)"/>
<path d="M124.482 186.491V283.059C124.482 286.26 125.753 289.331 128.017 291.594C130.281 293.858 133.351 295.13 136.553 295.13H233.12M148.624 236.024C148.624 235.226 148.941 234.459 149.505 233.894L161.576 221.823C161.856 221.542 162.189 221.319 162.556 221.167C162.922 221.015 163.315 220.936 163.712 220.936C164.109 220.936 164.502 221.015 164.869 221.167C165.235 221.319 165.568 221.542 165.849 221.823L185.718 241.692C185.998 241.973 186.331 242.196 186.698 242.348C187.064 242.5 187.457 242.578 187.854 242.578C188.251 242.578 188.644 242.5 189.011 242.348C189.377 242.196 189.71 241.973 189.991 241.692L215.895 215.788C216.317 215.365 216.854 215.077 217.44 214.96C218.025 214.842 218.632 214.902 219.184 215.13C219.736 215.358 220.208 215.745 220.54 216.241C220.872 216.737 221.049 217.321 221.049 217.918V264.952C221.049 266.553 220.413 268.088 219.281 269.22C218.15 270.352 216.614 270.988 215.014 270.988H154.659C153.058 270.988 151.523 270.352 150.391 269.22C149.259 268.088 148.624 266.553 148.624 264.952V236.024Z" stroke="white" stroke-width="2" stroke-linecap="round" stroke-linejoin="round"/>
</svg>
