<svg width="336" height="156" viewBox="0 0 336 156" fill="none" xmlns="http://www.w3.org/2000/svg">
<path d="M4.68 38.064C4.68 36 5.28 34.368 6.48 33.168C7.68 31.968 9.312 31.368 11.376 31.368H35.136C35.472 31.896 35.76 32.592 36 33.456C36.288 34.32 36.432 35.232 36.432 36.192C36.432 38.016 36.024 39.312 35.208 40.08C34.44 40.848 33.408 41.232 32.112 41.232H16.92V47.928H33.12C33.456 48.456 33.744 49.152 33.984 50.016C34.272 50.832 34.416 51.72 34.416 52.68C34.416 54.504 34.032 55.8 33.264 56.568C32.496 57.336 31.464 57.72 30.168 57.72H16.92V65.28H35.424C35.76 65.808 36.048 66.504 36.288 67.368C36.576 68.232 36.72 69.144 36.72 70.104C36.72 71.928 36.312 73.248 35.496 74.064C34.728 74.832 33.696 75.216 32.4 75.216H11.376C9.312 75.216 7.68 74.616 6.48 73.416C5.28 72.216 4.68 70.584 4.68 68.52V38.064ZM72.7093 64.56C72.7093 68.208 71.3413 71.064 68.6053 73.128C65.8693 75.192 61.8373 76.224 56.5093 76.224C54.4933 76.224 52.6213 76.08 50.8933 75.792C49.1653 75.504 47.6773 75.072 46.4293 74.496C45.2293 73.872 44.2693 73.104 43.5493 72.192C42.8773 71.28 42.5413 70.2 42.5413 68.952C42.5413 67.8 42.7813 66.84 43.2613 66.072C43.7413 65.256 44.3173 64.584 44.9893 64.056C46.3813 64.824 47.9653 65.52 49.7413 66.144C51.5653 66.72 53.6533 67.008 56.0053 67.008C57.4933 67.008 58.6213 66.792 59.3893 66.36C60.2053 65.928 60.6133 65.352 60.6133 64.632C60.6133 63.96 60.3253 63.432 59.7493 63.048C59.1733 62.664 58.2133 62.352 56.8693 62.112L54.7093 61.68C50.5333 60.864 47.4133 59.592 45.3493 57.864C43.3333 56.088 42.3253 53.568 42.3253 50.304C42.3253 48.528 42.7093 46.92 43.4773 45.48C44.2453 44.04 45.3253 42.84 46.7173 41.88C48.1093 40.92 49.7653 40.176 51.6853 39.648C53.6533 39.12 55.8133 38.856 58.1653 38.856C59.9413 38.856 61.5973 39 63.1333 39.288C64.7173 39.528 66.0853 39.912 67.2373 40.44C68.3893 40.968 69.3013 41.664 69.9733 42.528C70.6453 43.344 70.9813 44.328 70.9813 45.48C70.9813 46.584 70.7653 47.544 70.3333 48.36C69.9493 49.128 69.4453 49.776 68.8213 50.304C68.4373 50.064 67.8613 49.824 67.0933 49.584C66.3253 49.296 65.4853 49.056 64.5733 48.864C63.6613 48.624 62.7253 48.432 61.7653 48.288C60.8533 48.144 60.0133 48.072 59.2453 48.072C57.6613 48.072 56.4373 48.264 55.5733 48.648C54.7093 48.984 54.2773 49.536 54.2773 50.304C54.2773 50.832 54.5173 51.264 54.9973 51.6C55.4773 51.936 56.3893 52.248 57.7333 52.536L59.9653 53.04C64.5733 54.096 67.8373 55.56 69.7573 57.432C71.7253 59.256 72.7093 61.632 72.7093 64.56ZM90.8668 62.976C90.8668 64.224 91.2508 65.112 92.0188 65.64C92.8348 66.168 93.9628 66.432 95.4028 66.432C96.1228 66.432 96.8668 66.384 97.6348 66.288C98.4028 66.144 99.0748 65.976 99.6508 65.784C100.083 66.312 100.443 66.912 100.731 67.584C101.067 68.208 101.235 68.976 101.235 69.888C101.235 71.712 100.539 73.2 99.1468 74.352C97.8028 75.504 95.4028 76.08 91.9468 76.08C87.7228 76.08 84.4588 75.12 82.1548 73.2C79.8988 71.28 78.7708 68.16 78.7708 63.84V33.024C79.2988 32.88 80.0428 32.736 81.0028 32.592C82.0108 32.4 83.0668 32.304 84.1708 32.304C86.2828 32.304 87.9148 32.688 89.0668 33.456C90.2668 34.176 90.8668 35.736 90.8668 38.136V42.744H100.299C100.587 43.272 100.851 43.944 101.091 44.76C101.379 45.528 101.523 46.392 101.523 47.352C101.523 49.032 101.139 50.256 100.371 51.024C99.6508 51.744 98.6668 52.104 97.4188 52.104H90.8668V62.976ZM143.249 57.504C143.249 60.48 142.793 63.144 141.881 65.496C140.969 67.8 139.673 69.744 137.993 71.328C136.361 72.912 134.393 74.112 132.089 74.928C129.785 75.744 127.217 76.152 124.385 76.152C121.553 76.152 118.985 75.72 116.681 74.856C114.377 73.992 112.385 72.768 110.705 71.184C109.073 69.552 107.801 67.584 106.889 65.28C105.977 62.976 105.521 60.384 105.521 57.504C105.521 54.672 105.977 52.104 106.889 49.8C107.801 47.496 109.073 45.552 110.705 43.968C112.385 42.336 114.377 41.088 116.681 40.224C118.985 39.36 121.553 38.928 124.385 38.928C127.217 38.928 129.785 39.384 132.089 40.296C134.393 41.16 136.361 42.408 137.993 44.04C139.673 45.624 140.969 47.568 141.881 49.872C142.793 52.176 143.249 54.72 143.249 57.504ZM118.049 57.504C118.049 60.432 118.601 62.688 119.705 64.272C120.857 65.808 122.441 66.576 124.457 66.576C126.473 66.576 128.009 65.784 129.065 64.2C130.169 62.616 130.721 60.384 130.721 57.504C130.721 54.624 130.169 52.416 129.065 50.88C127.961 49.296 126.401 48.504 124.385 48.504C122.369 48.504 120.809 49.296 119.705 50.88C118.601 52.416 118.049 54.624 118.049 57.504ZM165.781 76.152C163.237 76.152 160.861 75.768 158.653 75C156.445 74.28 154.525 73.152 152.893 71.616C151.261 70.08 149.989 68.16 149.077 65.856C148.165 63.552 147.709 60.84 147.709 57.72C147.709 54.696 148.189 52.032 149.149 49.728C150.109 47.376 151.453 45.408 153.181 43.824C154.957 42.192 157.069 40.968 159.517 40.152C162.013 39.336 164.773 38.928 167.797 38.928C170.485 38.928 173.005 39.288 175.357 40.008C177.709 40.728 179.509 41.52 180.757 42.384C181.717 43.056 182.461 43.824 182.989 44.688C183.565 45.552 183.853 46.632 183.853 47.928V87.096C183.373 87.24 182.605 87.384 181.549 87.528C180.493 87.72 179.413 87.816 178.309 87.816C177.253 87.816 176.293 87.744 175.429 87.6C174.613 87.456 173.917 87.168 173.341 86.736C172.765 86.304 172.333 85.704 172.045 84.936C171.757 84.216 171.613 83.256 171.613 82.056V75.216C170.797 75.552 169.885 75.792 168.877 75.936C167.869 76.08 166.837 76.152 165.781 76.152ZM171.685 49.224C171.253 49.032 170.749 48.864 170.173 48.72C169.597 48.576 168.925 48.504 168.157 48.504C165.565 48.504 163.573 49.272 162.181 50.808C160.789 52.296 160.093 54.552 160.093 57.576C160.093 60.744 160.765 63.024 162.109 64.416C163.453 65.808 165.349 66.504 167.797 66.504C169.429 66.504 170.725 66.168 171.685 65.496V49.224ZM191.478 40.512C191.958 40.368 192.702 40.224 193.71 40.08C194.766 39.936 195.846 39.864 196.95 39.864C198.006 39.864 198.942 39.936 199.758 40.08C200.622 40.224 201.342 40.512 201.918 40.944C202.494 41.376 202.926 41.976 203.214 42.744C203.55 43.464 203.718 44.424 203.718 45.624V61.104C203.718 63.072 204.198 64.488 205.158 65.352C206.118 66.168 207.51 66.576 209.334 66.576C210.438 66.576 211.326 66.48 211.998 66.288C212.718 66.096 213.27 65.904 213.654 65.712V40.512C214.134 40.368 214.878 40.224 215.886 40.08C216.942 39.936 218.022 39.864 219.126 39.864C220.182 39.864 221.118 39.936 221.934 40.08C222.798 40.224 223.518 40.512 224.094 40.944C224.67 41.376 225.102 41.976 225.39 42.744C225.726 43.464 225.894 44.424 225.894 45.624V67.512C225.894 69.912 224.886 71.712 222.87 72.912C221.19 73.968 219.174 74.76 216.822 75.288C214.518 75.864 211.998 76.152 209.262 76.152C206.67 76.152 204.27 75.864 202.062 75.288C199.902 74.712 198.03 73.824 196.446 72.624C194.862 71.424 193.638 69.888 192.774 68.016C191.91 66.096 191.478 63.792 191.478 61.104V40.512ZM251.889 76.152C249.057 76.152 246.417 75.768 243.969 75C241.569 74.184 239.457 72.984 237.633 71.4C235.857 69.816 234.441 67.824 233.385 65.424C232.377 63.024 231.873 60.216 231.873 57C231.873 53.832 232.377 51.12 233.385 48.864C234.441 46.56 235.809 44.688 237.489 43.248C239.169 41.76 241.089 40.68 243.249 40.008C245.409 39.288 247.617 38.928 249.873 38.928C252.417 38.928 254.721 39.312 256.785 40.08C258.897 40.848 260.697 41.904 262.185 43.248C263.721 44.592 264.897 46.2 265.713 48.072C266.577 49.944 267.009 51.984 267.009 54.192C267.009 55.824 266.553 57.072 265.641 57.936C264.729 58.8 263.457 59.352 261.825 59.592L244.041 62.256C244.569 63.84 245.649 65.04 247.281 65.856C248.913 66.624 250.785 67.008 252.897 67.008C254.865 67.008 256.713 66.768 258.441 66.288C260.217 65.76 261.657 65.16 262.761 64.488C263.529 64.968 264.177 65.64 264.705 66.504C265.233 67.368 265.497 68.28 265.497 69.24C265.497 71.4 264.489 73.008 262.473 74.064C260.937 74.88 259.209 75.432 257.289 75.72C255.369 76.008 253.569 76.152 251.889 76.152ZM249.873 47.856C248.721 47.856 247.713 48.048 246.849 48.432C246.033 48.816 245.361 49.32 244.833 49.944C244.305 50.52 243.897 51.192 243.609 51.96C243.369 52.68 243.225 53.424 243.177 54.192L255.489 52.176C255.345 51.216 254.817 50.256 253.905 49.296C252.993 48.336 251.649 47.856 249.873 47.856Z" fill="#208A69"/>
<path d="M209.024 94.6C211.04 94.6 212.576 94.144 213.632 93.232C214.736 92.272 215.288 90.832 215.288 88.912C215.288 87.088 214.712 85.696 213.56 84.736C212.456 83.728 210.824 83.224 208.664 83.224C207.896 83.224 207.248 83.248 206.72 83.296C206.24 83.296 205.736 83.344 205.208 83.44V94.6H209.024ZM205.28 117.712C204.752 117.856 203.912 118 202.76 118.144C201.656 118.288 200.552 118.36 199.448 118.36C198.344 118.36 197.36 118.264 196.496 118.072C195.68 117.928 194.984 117.64 194.408 117.208C193.832 116.776 193.4 116.176 193.112 115.408C192.824 114.64 192.68 113.632 192.68 112.384V78.472C192.68 77.464 192.944 76.696 193.472 76.168C194.048 75.592 194.816 75.136 195.776 74.8C197.408 74.224 199.256 73.816 201.32 73.576C203.432 73.288 205.544 73.144 207.656 73.144C214.28 73.144 219.344 74.56 222.848 77.392C226.352 80.224 228.104 84.064 228.104 88.912C228.104 91.264 227.72 93.4 226.952 95.32C226.232 97.192 225.128 98.824 223.64 100.216C222.2 101.56 220.352 102.616 218.096 103.384C215.888 104.104 213.32 104.464 210.392 104.464H205.28V117.712ZM244.414 117.928C243.934 118.072 243.166 118.216 242.11 118.36C241.102 118.504 240.046 118.576 238.942 118.576C237.886 118.576 236.926 118.504 236.062 118.36C235.246 118.216 234.55 117.928 233.974 117.496C233.398 117.064 232.942 116.488 232.606 115.768C232.318 115 232.174 114.016 232.174 112.816V91.216C232.174 90.112 232.366 89.176 232.75 88.408C233.182 87.592 233.782 86.872 234.55 86.248C235.318 85.624 236.254 85.072 237.358 84.592C238.51 84.064 239.734 83.608 241.03 83.224C242.326 82.84 243.67 82.552 245.062 82.36C246.454 82.12 247.846 82 249.238 82C251.542 82 253.366 82.456 254.71 83.368C256.054 84.232 256.726 85.672 256.726 87.688C256.726 88.36 256.63 89.032 256.438 89.704C256.246 90.328 256.006 90.904 255.718 91.432C254.71 91.432 253.678 91.48 252.622 91.576C251.566 91.672 250.534 91.816 249.526 92.008C248.518 92.2 247.558 92.416 246.646 92.656C245.782 92.848 245.038 93.088 244.414 93.376V117.928ZM278.943 119.152C276.111 119.152 273.471 118.768 271.023 118C268.623 117.184 266.511 115.984 264.687 114.4C262.911 112.816 261.495 110.824 260.439 108.424C259.431 106.024 258.927 103.216 258.927 100C258.927 96.832 259.431 94.12 260.439 91.864C261.495 89.56 262.863 87.688 264.543 86.248C266.223 84.76 268.143 83.68 270.303 83.008C272.463 82.288 274.671 81.928 276.927 81.928C279.471 81.928 281.775 82.312 283.839 83.08C285.951 83.848 287.751 84.904 289.239 86.248C290.775 87.592 291.951 89.2 292.767 91.072C293.631 92.944 294.063 94.984 294.063 97.192C294.063 98.824 293.607 100.072 292.695 100.936C291.783 101.8 290.511 102.352 288.879 102.592L271.095 105.256C271.623 106.84 272.703 108.04 274.335 108.856C275.967 109.624 277.839 110.008 279.951 110.008C281.919 110.008 283.767 109.768 285.495 109.288C287.271 108.76 288.711 108.16 289.815 107.488C290.583 107.968 291.231 108.64 291.759 109.504C292.287 110.368 292.551 111.28 292.551 112.24C292.551 114.4 291.543 116.008 289.527 117.064C287.991 117.88 286.263 118.432 284.343 118.72C282.423 119.008 280.623 119.152 278.943 119.152ZM276.927 90.856C275.775 90.856 274.767 91.048 273.903 91.432C273.087 91.816 272.415 92.32 271.887 92.944C271.359 93.52 270.951 94.192 270.663 94.96C270.423 95.68 270.279 96.424 270.231 97.192L282.543 95.176C282.399 94.216 281.871 93.256 280.959 92.296C280.047 91.336 278.703 90.856 276.927 90.856ZM323.074 117.064C322.402 117.592 321.418 118.024 320.122 118.36C318.826 118.696 317.362 118.864 315.73 118.864C313.858 118.864 312.226 118.624 310.834 118.144C309.49 117.664 308.554 116.896 308.026 115.84C307.594 115.024 307.066 113.896 306.442 112.456C305.866 110.968 305.242 109.336 304.57 107.56C303.898 105.736 303.202 103.792 302.482 101.728C301.762 99.664 301.066 97.624 300.394 95.608C299.77 93.592 299.194 91.648 298.666 89.776C298.138 87.904 297.706 86.248 297.37 84.808C298.042 84.136 298.93 83.56 300.034 83.08C301.186 82.552 302.434 82.288 303.778 82.288C305.458 82.288 306.826 82.648 307.882 83.368C308.986 84.04 309.802 85.336 310.33 87.256L313.138 98.272C313.666 100.432 314.17 102.4 314.65 104.176C315.13 105.904 315.49 107.248 315.73 108.208H316.09C317.002 104.656 317.962 100.72 318.97 96.4C319.978 92.08 320.89 87.832 321.706 83.656C322.522 83.224 323.434 82.888 324.442 82.648C325.498 82.408 326.506 82.288 327.466 82.288C329.146 82.288 330.562 82.648 331.714 83.368C332.866 84.088 333.442 85.336 333.442 87.112C333.442 87.88 333.25 89.008 332.866 90.496C332.53 91.936 332.074 93.592 331.498 95.464C330.97 97.288 330.322 99.232 329.554 101.296C328.834 103.36 328.09 105.376 327.322 107.344C326.554 109.312 325.786 111.16 325.018 112.888C324.298 114.568 323.65 115.96 323.074 117.064Z" fill="#D0AC19"/>
</svg>
